<?xml version="1.0" encoding="utf-8"?>
<!-- Svg Vector Icons : http://www.onlinewebfonts.com/icon -->
<!DOCTYPE svg PUBLIC "-//W3C//DTD SVG 1.1//EN" "http://www.w3.org/Graphics/SVG/1.1/DTD/svg11.dtd">
<svg version="1.1" xmlns="http://www.w3.org/2000/svg" xmlns:xlink="http://www.w3.org/1999/xlink" x="0px" y="0px" viewBox="0 0 1000 1000" enable-background="new 0 0 1000 1000" xml:space="preserve">
<metadata> Svg Vector Icons : http://www.onlinewebfonts.com/icon </metadata>
<g><g transform="translate(0.000000,511.000000) scale(0.100000,-0.100000)"><path d="M4741.9,5005.8c-993-76.4-1845.7-889.8-2019.1-1928.2l-26.8-154.8l-615.2-10.3l-615.2-10.3l-49.5-57.8l-49.5-57.8V-933.8c0-3493.1,2.1-3722.3,37.2-3763.6c18.6-24.8,55.7-55.7,80.5-68.1c66.1-33,6961.5-33,7033.7,2.1c123.9,55.7,115.6-220.9,115.6,3825.5c0,2347.3-6.2,3720.2-18.6,3745c-51.6,92.9-61.9,95-699.8,105.3l-609,10.3l-45.4,227.1c-101.2,495.5-334.5,918.7-701.9,1265.5c-301.4,287-640,468.6-1021.9,551.2C5398.4,4995.4,4923.5,5020.2,4741.9,5005.8z M5557.4,4520.6c631.7-159,1123.1-693.7,1269.7-1387.3c16.5-78.5,31-159,31-181.7c0-39.2-35.1-39.2-1858-39.2s-1858,0-1858,39.2c0,22.7,14.5,103.2,31,181.7c169.3,794.8,774.2,1364.6,1517.4,1428.6C4966.9,4584.6,5379.8,4566,5557.4,4520.6z M2687.7,2065.9V1653h216.8h216.8v412.9v412.9h1878.7h1878.7v-412.9V1653h216.8h216.8v412.9v412.9H7756h443.9V-937.9v-3416.7h-3200H1800v3416.7v3416.7h443.9h443.9V2065.9z"/></g></g>
</svg>